<?xml version="1.0" encoding="utf-8"?>
<!-- Generator: Adobe Illustrator 23.0.1, SVG Export Plug-In . SVG Version: 6.00 Build 0)  -->
<svg version="1.1" id="Layer_1" xmlns="http://www.w3.org/2000/svg" xmlns:xlink="http://www.w3.org/1999/xlink" x="0px" y="0px"
	 viewBox="0 0 1000 1000" style="enable-background:new 0 0 1000 1000;" xml:space="preserve">
<style type="text/css">
	.st0{fill:#A1A2A2;}
	.st1{fill:#FFFFFF;}
</style>
<rect x="56.07" y="26.56" class="st0" width="177.44" height="177.44"/>
<path class="st1" d="M410.95,204H233.51V26.56h77.44c55.23,0,100,44.77,100,100V204z"/>
<path class="st0" d="M310.95,381.44h-77.44V204h177.44v77.44C410.95,336.67,366.18,381.44,310.95,381.44z"/>
<path class="st0" d="M606.13,558.88h-77.44c-55.23,0-100-44.77-100-100v-77.44h177.44V558.88z"/>
<rect x="606.13" y="204" class="st1" width="177.44" height="177.44"/>
<path class="st0" d="M606.13,204H428.69v-77.44c0-55.23,44.77-100,100-100h77.44V204z"/>
<path class="st0" d="M861.01,558.88h-77.44V381.44h177.44v77.44C961.01,514.11,916.24,558.88,861.01,558.88z"/>
<path class="st0" d="M961.01,204H783.57V26.56h77.44c55.23,0,100,44.77,100,100V204z"/>
<rect x="56.07" y="204" class="st1" width="177.44" height="177.44"/>
<rect x="56.07" y="381.44" class="st0" width="177.44" height="177.44"/>
<path class="st1" d="M99.54,815.4v76.55H59.26V683.23h71.39c11.37,0,21.65,1.65,30.82,4.95c9.17,3.3,16.99,7.88,23.44,13.76
	c6.45,5.88,11.42,12.93,14.91,21.14c3.49,8.22,5.23,17.35,5.23,27.38c0,9.37-1.74,18.01-5.23,25.95
	c-3.49,7.93-8.46,14.79-14.91,20.57c-6.45,5.78-14.26,10.3-23.44,13.55c-9.17,3.25-19.45,4.87-30.82,4.87H99.54z M99.54,782.72
	h31.11c5.73,0,10.7-0.86,14.91-2.58c4.2-1.72,7.72-4.06,10.54-7.02c2.82-2.96,4.92-6.38,6.31-10.25c1.38-3.87,2.08-7.91,2.08-12.11
	c0-4.87-0.69-9.41-2.08-13.62c-1.39-4.2-3.49-7.88-6.31-11.04c-2.82-3.15-6.33-5.64-10.54-7.45c-4.21-1.81-9.17-2.72-14.91-2.72
	H99.54V782.72z"/>
<path class="st0" d="M256.42,683.23h120.7v32.54h-40.71v143.78h40.71v32.4h-120.7v-32.4h39.71V715.77h-39.71V683.23z"/>
<path class="st1" d="M509.06,758.06l37.13-74.83h47.3l-58.77,103.5l60.21,105.22h-47.02l-38.27-75.97l-38.13,75.97h-47.59
	l60.21-105.22l-58.63-103.5h47.02L509.06,758.06z"/>
<path class="st0" d="M757.68,800.49h-85.72v58.92h100.2v32.54H631.54V683.23h140.19v32.83h-99.77v52.61h85.72V800.49z"/>
<path class="st0" d="M863.25,859.41h97.76v32.54H822.82V683.23h40.42V859.41z"/>
<path class="st0" d="M74.21,971.8c-0.12-0.24-0.22-0.53-0.3-0.89c-0.07-0.35-0.13-0.72-0.16-1.11c-0.32,0.31-0.67,0.61-1.06,0.89
	c-0.39,0.28-0.82,0.53-1.28,0.74c-0.47,0.21-0.97,0.38-1.5,0.51c-0.53,0.12-1.09,0.19-1.69,0.19c-0.97,0-1.84-0.14-2.63-0.42
	c-0.78-0.28-1.45-0.66-1.99-1.14c-0.55-0.48-0.97-1.05-1.27-1.71c-0.3-0.66-0.45-1.37-0.45-2.14c0-1,0.2-1.88,0.6-2.64
	c0.4-0.76,0.97-1.38,1.7-1.88c0.73-0.5,1.61-0.88,2.64-1.12c1.03-0.25,2.18-0.37,3.45-0.37h3.41v-1.44c0-0.55-0.1-1.05-0.3-1.49
	s-0.49-0.81-0.86-1.12c-0.37-0.31-0.83-0.55-1.36-0.72c-0.53-0.17-1.13-0.25-1.8-0.25c-0.62,0-1.17,0.08-1.66,0.24
	c-0.49,0.16-0.9,0.37-1.24,0.63c-0.34,0.26-0.6,0.57-0.79,0.92c-0.19,0.35-0.28,0.72-0.28,1.11h-3.14c0.01-0.67,0.18-1.32,0.52-1.96
	s0.81-1.22,1.44-1.73c0.63-0.51,1.39-0.93,2.28-1.24c0.9-0.32,1.91-0.47,3.05-0.47c1.04,0,2,0.13,2.89,0.38
	c0.89,0.25,1.66,0.64,2.31,1.15s1.16,1.15,1.53,1.92c0.37,0.77,0.56,1.66,0.56,2.68v8.5c0,0.61,0.06,1.25,0.17,1.93
	c0.11,0.68,0.27,1.28,0.47,1.78v0.27H74.21z M68.69,969.42c0.61,0,1.18-0.08,1.71-0.24c0.53-0.16,1.01-0.37,1.44-0.62
	c0.43-0.26,0.81-0.56,1.12-0.89c0.32-0.33,0.56-0.68,0.74-1.04v-3.7H70.8c-1.82,0-3.24,0.27-4.26,0.81
	c-1.01,0.54-1.52,1.39-1.52,2.55c0,0.45,0.08,0.87,0.23,1.25c0.15,0.38,0.38,0.71,0.68,0.99c0.3,0.28,0.69,0.49,1.15,0.65
	C67.55,969.34,68.08,969.42,68.69,969.42z"/>
<path class="st0" d="M109.64,953.52l0.22,2.7c0.66-0.95,1.48-1.69,2.45-2.22c0.97-0.54,2.05-0.81,3.24-0.82
	c0.96,0,1.83,0.14,2.61,0.41s1.45,0.69,2,1.27c0.55,0.57,0.98,1.3,1.28,2.19c0.3,0.88,0.45,1.93,0.45,3.15v11.61h-3.13v-11.54
	c0-0.81-0.09-1.5-0.27-2.06c-0.18-0.56-0.45-1.02-0.8-1.37c-0.35-0.35-0.79-0.6-1.3-0.76c-0.51-0.16-1.1-0.24-1.77-0.24
	c-1.05,0-1.97,0.26-2.76,0.79c-0.79,0.52-1.43,1.21-1.9,2.07v13.11h-3.13v-18.28H109.64z"/>
<path class="st1" d="M210.12,946.38v3.4h-13.57v6.76h13.57v3.4h-13.57v8.47h13.57v3.38h-16.95v-25.42H210.12z"/>
<path class="st1" d="M240.94,946.38c3.5,0,6.49,1.24,8.97,3.72c2.48,2.5,3.72,5.49,3.72,8.99c0,3.52-1.24,6.51-3.72,8.99
	c-2.48,2.48-5.47,3.72-8.97,3.72h-9.33v-25.42H240.94z M240.94,968.42c2.56,0,4.76-0.91,6.58-2.73s2.73-4.02,2.73-6.6
	c0-2.57-0.91-4.76-2.73-6.58c-1.82-1.82-4.01-2.73-6.58-2.73h-5.95v18.64H240.94z"/>
<path class="st1" d="M299.85,968.42v3.38h-12.71c-3.52,0-6.51-1.24-8.99-3.72c-2.48-2.48-3.72-5.48-3.72-8.99
	c0-3.5,1.24-6.5,3.72-8.99c2.48-2.48,5.48-3.72,8.99-3.72c2.74,0,5.21,0.8,7.41,2.39c2.17,1.56,3.69,3.59,4.57,6.08h-3.69
	c-0.78-1.53-1.9-2.75-3.35-3.66c-1.51-0.94-3.15-1.4-4.94-1.4c-2.58,0-4.78,0.91-6.6,2.73c-1.82,1.82-2.73,4.01-2.73,6.58
	c0,2.58,0.91,4.78,2.73,6.6c1.82,1.82,4.02,2.73,6.6,2.73H299.85z"/>
<path class="st1" d="M345.22,971.8h-3.74l-3.02-6.78h-10.24l-3.02,6.78h-3.72l11.85-25.42L345.22,971.8z M329.73,961.64h7.23
	l-3.61-8.14L329.73,961.64z"/>
<path class="st1" d="M386.17,946.38v25.42l-16.95-17.23v17.23h-3.38v-25.42l16.95,16.95v-16.95H386.17z"/>
<path class="st0" d="M454.8,962.51c0-1.36,0.17-2.62,0.52-3.76c0.34-1.14,0.83-2.13,1.47-2.95c0.64-0.82,1.41-1.46,2.31-1.93
	c0.9-0.46,1.91-0.69,3.02-0.69c1.09,0,2.05,0.18,2.86,0.55c0.82,0.37,1.52,0.9,2.12,1.6v-9.48h3.13v25.95h-2.87l-0.14-1.93
	c-0.61,0.74-1.33,1.31-2.18,1.69c-0.84,0.38-1.83,0.57-2.96,0.57c-1.1,0-2.1-0.24-3-0.71c-0.89-0.47-1.66-1.13-2.29-1.96
	c-0.63-0.83-1.12-1.82-1.47-2.95c-0.35-1.13-0.52-2.35-0.52-3.66V962.51z M457.93,962.86c0,0.89,0.1,1.73,0.29,2.53
	c0.19,0.8,0.49,1.5,0.89,2.11c0.4,0.61,0.91,1.09,1.53,1.44s1.36,0.53,2.23,0.53c0.53,0,1.01-0.06,1.44-0.18
	c0.43-0.12,0.82-0.3,1.17-0.53c0.35-0.23,0.66-0.51,0.93-0.83c0.27-0.32,0.51-0.68,0.71-1.07v-8.48c-0.41-0.74-0.95-1.35-1.64-1.83
	s-1.54-0.72-2.57-0.72c-0.88,0-1.63,0.18-2.26,0.54c-0.62,0.36-1.14,0.85-1.54,1.46c-0.4,0.61-0.7,1.32-0.89,2.13
	s-0.29,1.65-0.29,2.54V962.86z"/>
<path class="st0" d="M508.11,972.14c-1.28,0-2.46-0.22-3.54-0.66c-1.07-0.44-2-1.05-2.76-1.84c-0.77-0.79-1.36-1.72-1.79-2.8
	c-0.43-1.08-0.64-2.26-0.64-3.53v-0.71c0-1.48,0.24-2.8,0.71-3.96c0.47-1.17,1.1-2.15,1.88-2.96c0.78-0.8,1.67-1.42,2.67-1.85
	c1-0.43,2.02-0.64,3.07-0.64c1.32,0,2.47,0.23,3.45,0.68c0.99,0.46,1.81,1.09,2.46,1.89c0.65,0.81,1.14,1.75,1.46,2.85
	c0.32,1.09,0.48,2.28,0.48,3.55v1.4H502.5c0.03,0.83,0.19,1.62,0.48,2.35c0.29,0.73,0.68,1.37,1.18,1.92c0.5,0.55,1.1,0.98,1.8,1.29
	c0.7,0.32,1.47,0.47,2.31,0.47c1.12,0,2.11-0.22,2.97-0.68c0.87-0.45,1.59-1.05,2.16-1.79l1.91,1.49c-0.3,0.46-0.68,0.9-1.14,1.33
	c-0.46,0.42-0.98,0.8-1.58,1.12c-0.6,0.33-1.27,0.59-2.03,0.78C509.82,972.04,509,972.14,508.11,972.14z M507.7,955.75
	c-0.63,0-1.23,0.11-1.79,0.35c-0.56,0.23-1.07,0.57-1.52,1.01s-0.83,0.99-1.14,1.64c-0.31,0.65-0.53,1.39-0.65,2.24h9.83v-0.24
	c-0.03-0.61-0.15-1.21-0.35-1.81c-0.2-0.6-0.49-1.13-0.87-1.6c-0.38-0.47-0.86-0.86-1.45-1.15
	C509.19,955.9,508.5,955.75,507.7,955.75z"/>
<path class="st0" d="M556.81,966.95c0-0.37-0.07-0.71-0.22-1s-0.39-0.57-0.74-0.82c-0.35-0.25-0.81-0.48-1.39-0.68
	c-0.57-0.21-1.29-0.4-2.15-0.57c-1.05-0.21-2-0.47-2.86-0.78c-0.86-0.3-1.6-0.67-2.21-1.09c-0.61-0.42-1.09-0.92-1.43-1.49
	s-0.51-1.23-0.51-1.99c0-0.74,0.17-1.44,0.52-2.09c0.35-0.65,0.84-1.21,1.47-1.7c0.63-0.48,1.38-0.87,2.26-1.15
	c0.87-0.28,1.83-0.42,2.88-0.42c1.13,0,2.14,0.15,3.04,0.44c0.9,0.29,1.67,0.7,2.3,1.22c0.63,0.52,1.12,1.12,1.46,1.82
	c0.34,0.69,0.52,1.44,0.52,2.24h-3.13c0-0.4-0.1-0.78-0.3-1.16s-0.48-0.71-0.84-1c-0.36-0.29-0.8-0.53-1.31-0.71
	c-0.51-0.18-1.09-0.27-1.73-0.27c-0.66,0-1.25,0.07-1.75,0.22c-0.5,0.15-0.92,0.34-1.25,0.59c-0.33,0.25-0.58,0.53-0.75,0.86
	c-0.17,0.33-0.25,0.67-0.25,1.01c0,0.36,0.07,0.68,0.2,0.96c0.14,0.28,0.37,0.53,0.7,0.76c0.33,0.23,0.78,0.43,1.34,0.61
	c0.56,0.18,1.26,0.36,2.12,0.53c1.13,0.24,2.13,0.51,3.02,0.82c0.89,0.31,1.64,0.68,2.25,1.12c0.61,0.43,1.07,0.94,1.39,1.51
	c0.32,0.57,0.48,1.24,0.48,1.99c0,0.81-0.18,1.55-0.55,2.21c-0.37,0.67-0.88,1.23-1.53,1.71c-0.65,0.47-1.44,0.84-2.35,1.1
	c-0.91,0.26-1.91,0.39-2.99,0.39c-1.24,0-2.34-0.17-3.31-0.5s-1.79-0.77-2.46-1.32c-0.67-0.55-1.18-1.18-1.54-1.9
	c-0.35-0.72-0.53-1.47-0.53-2.25h3.13c0.05,0.64,0.22,1.18,0.51,1.62c0.3,0.44,0.67,0.8,1.12,1.07c0.45,0.27,0.94,0.46,1.48,0.57
	c0.54,0.11,1.08,0.17,1.6,0.17c1.32,0,2.36-0.24,3.13-0.73C556.41,968.4,556.8,967.75,556.81,966.95z"/>
<path class="st0" d="M589.8,953.52h9.34v15.58h5.96v2.7H589.8v-2.7h6.22v-12.86h-6.22V953.52z M595.61,948.72
	c0-0.52,0.15-0.96,0.46-1.31c0.31-0.35,0.78-0.53,1.41-0.53c0.62,0,1.09,0.18,1.4,0.53c0.32,0.35,0.47,0.79,0.47,1.31
	c0,0.51-0.16,0.93-0.47,1.27c-0.32,0.34-0.78,0.51-1.4,0.51c-0.63,0-1.1-0.17-1.41-0.51C595.76,949.65,595.61,949.23,595.61,948.72z
	"/>
<path class="st0" d="M633.37,962.51c0-1.36,0.17-2.62,0.5-3.76c0.33-1.14,0.81-2.13,1.44-2.95c0.63-0.82,1.4-1.46,2.3-1.93
	c0.9-0.46,1.92-0.69,3.06-0.69c1.13,0,2.11,0.2,2.97,0.6c0.85,0.4,1.57,0.98,2.17,1.73l0.15-1.99h2.84v17.89
	c0,1.21-0.19,2.28-0.57,3.21c-0.38,0.94-0.91,1.73-1.59,2.38c-0.68,0.65-1.5,1.15-2.44,1.49s-1.99,0.51-3.14,0.51
	c-0.47,0-1.01-0.05-1.62-0.16s-1.23-0.28-1.85-0.52c-0.63-0.24-1.23-0.57-1.81-0.97c-0.58-0.41-1.08-0.91-1.49-1.5l1.62-1.87
	c0.38,0.46,0.78,0.85,1.18,1.17c0.41,0.32,0.82,0.58,1.23,0.77c0.42,0.19,0.83,0.33,1.25,0.41s0.83,0.13,1.25,0.13
	c0.74,0,1.41-0.11,2.01-0.32c0.6-0.21,1.11-0.53,1.53-0.94c0.42-0.41,0.75-0.92,0.97-1.53c0.22-0.61,0.34-1.31,0.34-2.09v-1.57
	c-0.61,0.7-1.33,1.23-2.15,1.6c-0.83,0.37-1.79,0.55-2.88,0.55c-1.12,0-2.12-0.24-3.02-0.71c-0.9-0.47-1.66-1.13-2.29-1.96
	c-0.63-0.83-1.11-1.82-1.45-2.95s-0.51-2.35-0.51-3.66V962.51z M636.49,962.86c0,0.89,0.09,1.73,0.28,2.53
	c0.18,0.8,0.48,1.5,0.88,2.11c0.4,0.61,0.91,1.09,1.53,1.44c0.62,0.35,1.36,0.53,2.23,0.53c0.54,0,1.03-0.07,1.46-0.19
	c0.43-0.13,0.82-0.31,1.17-0.55c0.34-0.24,0.65-0.52,0.92-0.84c0.27-0.33,0.51-0.69,0.71-1.08v-8.38c-0.2-0.38-0.44-0.73-0.71-1.05
	c-0.27-0.31-0.58-0.59-0.93-0.82c-0.35-0.23-0.74-0.41-1.17-0.54c-0.43-0.13-0.9-0.19-1.42-0.19c-0.88,0-1.63,0.18-2.26,0.54
	c-0.62,0.36-1.14,0.85-1.54,1.46c-0.4,0.61-0.69,1.32-0.88,2.13c-0.19,0.8-0.28,1.65-0.28,2.54V962.86z"/>
<path class="st0" d="M681.39,953.52l0.22,2.7c0.66-0.95,1.48-1.69,2.45-2.22c0.97-0.54,2.05-0.81,3.24-0.82
	c0.96,0,1.83,0.14,2.61,0.41c0.78,0.27,1.45,0.69,2,1.27c0.55,0.57,0.98,1.3,1.27,2.19c0.3,0.88,0.45,1.93,0.45,3.15v11.61h-3.13
	v-11.54c0-0.81-0.09-1.5-0.27-2.06c-0.18-0.56-0.45-1.02-0.8-1.37c-0.35-0.35-0.79-0.6-1.3-0.76c-0.51-0.16-1.1-0.24-1.77-0.24
	c-1.05,0-1.97,0.26-2.76,0.79c-0.8,0.52-1.43,1.21-1.9,2.07v13.11h-3.13v-18.28H681.39z"/>
<path class="st0" d="M779.72,969.28c-0.61,0.9-1.37,1.6-2.28,2.1c-0.91,0.5-1.97,0.75-3.16,0.75c-0.96,0-1.82-0.15-2.6-0.45
	s-1.44-0.76-1.99-1.39c-0.55-0.63-0.98-1.43-1.28-2.41c-0.3-0.97-0.45-2.14-0.45-3.51v-10.86h3.13v10.9c0,0.99,0.08,1.81,0.24,2.47
	c0.16,0.65,0.39,1.17,0.71,1.56c0.32,0.39,0.7,0.66,1.16,0.82c0.45,0.16,0.98,0.24,1.58,0.24c1.27,0,2.3-0.26,3.08-0.78
	c0.78-0.52,1.36-1.22,1.75-2.09v-13.11h3.14v18.28h-2.84L779.72,969.28z"/>
<path class="st0" d="M815.3,953.52l0.22,2.7c0.66-0.95,1.48-1.69,2.45-2.22c0.97-0.54,2.05-0.81,3.24-0.82
	c0.96,0,1.83,0.14,2.61,0.41c0.78,0.27,1.45,0.69,2,1.27c0.55,0.57,0.98,1.3,1.27,2.19c0.3,0.88,0.45,1.93,0.45,3.15v11.61h-3.13
	v-11.54c0-0.81-0.09-1.5-0.27-2.06c-0.18-0.56-0.45-1.02-0.8-1.37c-0.35-0.35-0.79-0.6-1.3-0.76c-0.51-0.16-1.1-0.24-1.77-0.24
	c-1.05,0-1.97,0.26-2.76,0.79c-0.8,0.52-1.43,1.21-1.9,2.07v13.11h-3.13v-18.28H815.3z"/>
<path class="st0" d="M857.62,953.52h9.34v15.58h5.96v2.7h-15.31v-2.7h6.22v-12.86h-6.22V953.52z M863.44,948.72
	c0-0.52,0.15-0.96,0.46-1.31c0.31-0.35,0.78-0.53,1.41-0.53c0.62,0,1.09,0.18,1.4,0.53c0.32,0.35,0.47,0.79,0.47,1.31
	c0,0.51-0.16,0.93-0.47,1.27c-0.32,0.34-0.78,0.51-1.4,0.51c-0.63,0-1.1-0.17-1.41-0.51C863.59,949.65,863.44,949.23,863.44,948.72z
	"/>
<path class="st0" d="M909.17,949.1v4.43h6.96v2.41h-6.96v9.93c0,0.71,0.09,1.3,0.27,1.76c0.18,0.46,0.43,0.83,0.74,1.11
	c0.32,0.28,0.68,0.47,1.09,0.58c0.41,0.11,0.85,0.17,1.31,0.17c0.34,0,0.69-0.02,1.05-0.06s0.71-0.09,1.06-0.14
	c0.34-0.06,0.67-0.11,0.96-0.18c0.3-0.06,0.54-0.12,0.73-0.16l0.44,2.21c-0.26,0.16-0.57,0.29-0.95,0.41
	c-0.37,0.12-0.78,0.22-1.22,0.3s-0.9,0.15-1.39,0.19c-0.49,0.04-0.98,0.07-1.46,0.07c-0.81,0-1.57-0.12-2.27-0.35
	c-0.7-0.23-1.32-0.6-1.83-1.1c-0.52-0.5-0.93-1.15-1.23-1.94c-0.3-0.79-0.45-1.75-0.45-2.88v-9.93h-4.8v-2.41h4.8v-4.43H909.17z"/>
<path class="st0" d="M951.85,969.78c0-0.34,0.05-0.65,0.16-0.95c0.11-0.29,0.26-0.55,0.46-0.77c0.2-0.22,0.46-0.39,0.76-0.51
	c0.3-0.12,0.66-0.19,1.06-0.19s0.76,0.06,1.07,0.19c0.31,0.12,0.57,0.29,0.78,0.51c0.21,0.22,0.37,0.48,0.47,0.77
	c0.11,0.29,0.16,0.61,0.16,0.95c0,0.33-0.05,0.63-0.16,0.92c-0.11,0.29-0.26,0.54-0.47,0.75c-0.21,0.21-0.47,0.38-0.78,0.5
	c-0.31,0.12-0.67,0.18-1.07,0.18s-0.76-0.06-1.06-0.18c-0.3-0.12-0.56-0.28-0.76-0.5c-0.2-0.21-0.36-0.46-0.46-0.75
	C951.9,970.41,951.85,970.1,951.85,969.78z"/>
</svg>
