<svg xmlns="http://www.w3.org/2000/svg" viewBox="0 0 609.03 1005.84"><defs><style>.cls-1{fill:#eee;}.cls-2{fill:#afafaf;}.cls-3{fill:#fff;}</style></defs><title>techio</title><g id="Layer_2" data-name="Layer 2"><g id="레이어_1" data-name="레이어 1"><rect class="cls-1" x="82.04" width="80.9" height="720"/><path class="cls-1" d="M284.29,121.35v477.3A121.35,121.35,0,0,0,405.64,720h0A121.35,121.35,0,0,0,527,598.65V121.35A121.35,121.35,0,0,0,405.64,0h0m40.45,598.65a40.45,40.45,0,0,1-40.45,40.45h0a40.45,40.45,0,0,1-40.45-40.45V121.35A40.45,40.45,0,0,1,405.64,80.9h0a40.45,40.45,0,0,1,40.45,40.45Z"/><path class="cls-2" d="M162.94,720H82L298.9,76.66A112.64,112.64,0,0,1,405.64,0h0Z"/><path class="cls-3" d="M97.87,853.75H61.07v100.1H36.31V853.75H0v-20H97.87Z"/><path class="cls-3" d="M144.17,955.5a48.42,48.42,0,0,1-18.61-3.38,41.47,41.47,0,0,1-14-9.24,39.77,39.77,0,0,1-8.74-13.74,46.86,46.86,0,0,1-3-16.88V909a56.62,56.62,0,0,1,2.92-18.61,43,43,0,0,1,8.34-14.56,37.68,37.68,0,0,1,13.12-9.53,42.06,42.06,0,0,1,17.29-3.43,42.47,42.47,0,0,1,17,3.18A34,34,0,0,1,170.87,875a37.88,37.88,0,0,1,7.51,13.82,60.36,60.36,0,0,1,2.51,18V917H124a24.86,24.86,0,0,0,2.36,7.93,20.42,20.42,0,0,0,4.54,6.06,19.89,19.89,0,0,0,6.47,3.92,23.38,23.38,0,0,0,8.34,1.41,29.66,29.66,0,0,0,12-2.44,24.31,24.31,0,0,0,9.49-7.55L179,939.41a34.85,34.85,0,0,1-5.37,5.94,35.84,35.84,0,0,1-7.59,5.16,45,45,0,0,1-9.86,3.63A49.72,49.72,0,0,1,144.17,955.5Zm-2.72-73.28a16.1,16.1,0,0,0-6.81,1.36,14.92,14.92,0,0,0-5,3.8,19.59,19.59,0,0,0-3.43,5.82,33.54,33.54,0,0,0-1.9,7.51h33.18v-1.9a24.26,24.26,0,0,0-1-6.6,14.54,14.54,0,0,0-2.89-5.28,13,13,0,0,0-4.95-3.47A18.65,18.65,0,0,0,141.45,882.22Z"/><path class="cls-3" d="M231.56,936.28a18.33,18.33,0,0,0,6-.95,14.19,14.19,0,0,0,4.7-2.69,12.3,12.3,0,0,0,3.1-4.16,14,14,0,0,0,1.19-5.49H269a30.68,30.68,0,0,1-3,13.08,32.06,32.06,0,0,1-7.84,10.31,35.61,35.61,0,0,1-11.68,6.73A42.75,42.75,0,0,1,232,955.5a43.88,43.88,0,0,1-18.16-3.5A35.86,35.86,0,0,1,201,942.42a40.64,40.64,0,0,1-7.68-14.27,59.46,59.46,0,0,1-2.56-17.71v-2.31a59.81,59.81,0,0,1,2.56-17.74A41.06,41.06,0,0,1,201,876a35.81,35.81,0,0,1,12.83-9.61,43.16,43.16,0,0,1,18-3.51,44.55,44.55,0,0,1,15.06,2.43,33.45,33.45,0,0,1,11.68,7,31.39,31.39,0,0,1,7.59,11A38,38,0,0,1,269,897.82H246.58a18.94,18.94,0,0,0-1.11-6.07,14.77,14.77,0,0,0-2.93-5,13.66,13.66,0,0,0-4.7-3.34,15.74,15.74,0,0,0-6.44-1.24,15.33,15.33,0,0,0-8.5,2.15,14.87,14.87,0,0,0-5.16,5.73,25.72,25.72,0,0,0-2.52,8.3,69.92,69.92,0,0,0-.66,9.73v2.31a70.74,70.74,0,0,0,.66,9.83,25.27,25.27,0,0,0,2.52,8.25,14.64,14.64,0,0,0,5.16,5.65A15.93,15.93,0,0,0,231.56,936.28Z"/><path class="cls-3" d="M305.84,874.3a32.41,32.41,0,0,1,10.44-8.38,29.35,29.35,0,0,1,13.41-3,37.15,37.15,0,0,1,12.05,1.86,22.43,22.43,0,0,1,9.32,6,28,28,0,0,1,6,10.77,52.92,52.92,0,0,1,2.11,16v56.28H335.3V897.41a23.34,23.34,0,0,0-.95-7.18,11.35,11.35,0,0,0-2.77-4.67,10.18,10.18,0,0,0-4.49-2.51,22.56,22.56,0,0,0-6.07-.75,18.08,18.08,0,0,0-9.32,2.19,16.1,16.1,0,0,0-5.86,5.9v63.46H282V827.09h23.85Z"/><path class="cls-3" d="M378.38,942.13a13.3,13.3,0,0,1,.95-5.07,11.31,11.31,0,0,1,2.72-4,13.12,13.12,0,0,1,4.25-2.69,14.76,14.76,0,0,1,5.53-1,15.12,15.12,0,0,1,5.57,1,13,13,0,0,1,4.29,2.69,11.31,11.31,0,0,1,2.72,4,13.3,13.3,0,0,1,.95,5.07,13,13,0,0,1-.95,5,11.51,11.51,0,0,1-2.72,4,12.42,12.42,0,0,1-4.29,2.64,15.77,15.77,0,0,1-5.57,1,15.39,15.39,0,0,1-5.53-1,12.52,12.52,0,0,1-4.25-2.64,11.51,11.51,0,0,1-2.72-4A13,13,0,0,1,378.38,942.13Z"/><path class="cls-2" d="M435.32,864.56h41.43v80.55h30.37v8.74h-71.8v-8.74h31.52V873.39H435.32ZM464,840.13a8.34,8.34,0,0,1,1.74-5.28c1.15-1.48,3.08-2.23,5.77-2.23s4.56.75,5.74,2.23a8.25,8.25,0,0,1,1.77,5.28,7.84,7.84,0,0,1-1.77,5.08q-1.77,2.19-5.74,2.19c-2.69,0-4.62-.73-5.77-2.19A7.92,7.92,0,0,1,464,840.13Z"/><path class="cls-2" d="M529.31,907.89a55.86,55.86,0,0,1,2.81-17.25,44.33,44.33,0,0,1,7.8-14.32,36.79,36.79,0,0,1,29.17-13.41,37,37,0,0,1,29.3,13.41,43.85,43.85,0,0,1,7.84,14.32,55.86,55.86,0,0,1,2.8,17.25v2.72a56.44,56.44,0,0,1-2.76,17.25,43.32,43.32,0,0,1-7.8,14.32,36.76,36.76,0,0,1-29.21,13.32,37.86,37.86,0,0,1-16.8-3.59,37.29,37.29,0,0,1-12.5-9.73,44,44,0,0,1-7.84-14.32,55.86,55.86,0,0,1-2.81-17.25Zm9.91,2.72a47.44,47.44,0,0,0,2,13.7A37,37,0,0,0,547,936a28.78,28.78,0,0,0,9.36,8.12,28.62,28.62,0,0,0,25.75,0,28.44,28.44,0,0,0,9.32-8.12,37.57,37.57,0,0,0,5.74-11.68,47.44,47.44,0,0,0,2-13.7v-2.72a47.14,47.14,0,0,0-2-13.62,37.21,37.21,0,0,0-5.78-11.68,29.34,29.34,0,0,0-9.4-8.17,26.3,26.3,0,0,0-12.88-3.09,26,26,0,0,0-12.83,3.09,29.2,29.2,0,0,0-9.33,8.17,37.77,37.77,0,0,0-5.73,11.68,47.14,47.14,0,0,0-2,13.62Z"/><path class="cls-3" d="M106,1003H102.3l-.81,2.73h-2l3.81-11.74H105l3.74,11.74h-2Zm-3.17-1.65h2.69l-1.33-4.6Z"/><path class="cls-3" d="M124.37,1005.68h-2l-3.82-8.08v8.08h-2V993.94h2l3.81,8v-8h2Z"/><path class="cls-2" d="M157,993.06v1.69h-6.73v3.36H157v1.69h-6.73v4.2H157v1.68h-8.41V993.06Z"/><path class="cls-2" d="M168.46,993.06a6.31,6.31,0,0,1,0,12.62h-4.63V993.06Zm.13,10.94a4.26,4.26,0,0,0,3.17-1.35,4.54,4.54,0,0,0,1.32-3.28,4.5,4.5,0,0,0-1.32-3.26,4.24,4.24,0,0,0-3.17-1.36h-2.88V1004Z"/><path class="cls-2" d="M193.85,1004v1.68h-6.3a6.31,6.31,0,1,1,5.94-8.41h-1.83a4.55,4.55,0,0,0-1.66-1.82,4.62,4.62,0,0,0-2.45-.7,4.63,4.63,0,1,0,0,9.25Z"/><path class="cls-2" d="M212.53,1005.68h-1.85l-1.5-3.37H204.1l-1.49,3.37h-1.85l5.88-12.62Zm-7.68-5h3.58l-1.79-4Z"/><path class="cls-2" d="M229,993.06v12.62l-8.41-8.55v8.55h-1.67V993.06l8.4,8.41v-8.41Z"/><path class="cls-3" d="M253.89,993.94h7v1.61h-2.54v8.53h2.54v1.6h-7v-1.6h2.48v-8.53h-2.48Z"/><path class="cls-3" d="M269.83,1001.23a5.53,5.53,0,0,1,.28-1.75,4.24,4.24,0,0,1,.8-1.41,3.73,3.73,0,0,1,1.27-.94,4.45,4.45,0,0,1,3.41,0,3.76,3.76,0,0,1,1.28.94,4.22,4.22,0,0,1,.79,1.41,5.53,5.53,0,0,1,.27,1.75v.17a5.57,5.57,0,0,1-.27,1.77,4.22,4.22,0,0,1-.79,1.41,3.83,3.83,0,0,1-1.27.93,4.19,4.19,0,0,1-1.7.33,4.29,4.29,0,0,1-1.72-.33,3.83,3.83,0,0,1-1.27-.93,4.24,4.24,0,0,1-.8-1.41,5.57,5.57,0,0,1-.28-1.77Zm1.93.17a4.41,4.41,0,0,0,.13,1.12,3,3,0,0,0,.38.93,2.12,2.12,0,0,0,.67.63,2,2,0,0,0,1,.23,1.9,1.9,0,0,0,.94-.23,2.2,2.2,0,0,0,.66-.63,3,3,0,0,0,.38-.93,4.41,4.41,0,0,0,.13-1.12v-.17a4.42,4.42,0,0,0-.13-1.1,2.92,2.92,0,0,0-.38-.92,2.2,2.2,0,0,0-.66-.63,2,2,0,0,0-1-.23,1.91,1.91,0,0,0-.95.23,2,2,0,0,0-.66.63,2.92,2.92,0,0,0-.38.92,4.42,4.42,0,0,0-.13,1.1Z"/><path class="cls-3" d="M295,995.54h-3.61v10.14h-1.92V995.54h-3.58v-1.6H295Z"/><path class="cls-3" d="M319.56,1005.68V993.94h2.87a5.91,5.91,0,0,1,2.17.4,4.65,4.65,0,0,1,1.64,1.12,5,5,0,0,1,1,1.71,6.67,6.67,0,0,1,.37,2.2v.89a6.63,6.63,0,0,1-.37,2.2,4.91,4.91,0,0,1-1,1.71,4.42,4.42,0,0,1-1.62,1.11,5.54,5.54,0,0,1-2.13.4Zm2-10.18v8.62h1a3.31,3.31,0,0,0,1.39-.29,2.64,2.64,0,0,0,1-.78,3.43,3.43,0,0,0,.6-1.21,5.94,5.94,0,0,0,.2-1.58v-.9a5.76,5.76,0,0,0-.2-1.55,3.53,3.53,0,0,0-.61-1.21,2.67,2.67,0,0,0-1-.8,3.47,3.47,0,0,0-1.43-.3Z"/><path class="cls-3" d="M343,1000.41h-4.83v3.69h5.65v1.58h-7.59V993.94h7.54v1.6h-5.6v3.31H343Z"/><path class="cls-3" d="M356.41,1002.73l2.44-8.79H361l-3.63,11.74h-1.84l-3.62-11.74H354Z"/><path class="cls-3" d="M376.06,1000.41h-4.83v3.69h5.65v1.58h-7.59V993.94h7.53v1.6h-5.59v3.31h4.83Z"/><path class="cls-3" d="M387.81,1004.1h5.59v1.58h-7.53V993.94h1.94Z"/><path class="cls-3" d="M410.15,1000.57a7.3,7.3,0,0,1-.27,2,5.21,5.21,0,0,1-.79,1.68,3.73,3.73,0,0,1-3.18,1.6,3.71,3.71,0,0,1-1.84-.44,4,4,0,0,1-1.3-1.16,5.19,5.19,0,0,1-.78-1.68,7.29,7.29,0,0,1-.26-2v-1.5a7.57,7.57,0,0,1,.11-1.36,6.85,6.85,0,0,1,.35-1.24,5.05,5.05,0,0,1,.57-1.08,3.64,3.64,0,0,1,.81-.85,3.77,3.77,0,0,1,1.05-.56,4,4,0,0,1,1.28-.2,3.82,3.82,0,0,1,1.86.44,3.88,3.88,0,0,1,1.32,1.16,5.18,5.18,0,0,1,.8,1.69,7.32,7.32,0,0,1,.27,2Zm-1.94-1.52a8.19,8.19,0,0,0-.13-1.31,4,4,0,0,0-.37-1.17,2.4,2.4,0,0,0-.71-.83,1.84,1.84,0,0,0-1.1-.32,1.77,1.77,0,0,0-1.08.32,2.2,2.2,0,0,0-.69.84,3.75,3.75,0,0,0-.35,1.16,8.17,8.17,0,0,0-.11,1.31v1.52a8.27,8.27,0,0,0,.11,1.31,4,4,0,0,0,.36,1.16,2.39,2.39,0,0,0,.68.85,1.81,1.81,0,0,0,1.09.32,1.84,1.84,0,0,0,1.1-.32,2.39,2.39,0,0,0,.7-.84,3.92,3.92,0,0,0,.38-1.17,9.67,9.67,0,0,0,.12-1.31Z"/><path class="cls-3" d="M420.78,1001.18v4.5h-1.93V993.94h3.92a5.19,5.19,0,0,1,1.62.26,3.71,3.71,0,0,1,1.29.73,3.19,3.19,0,0,1,.84,1.14,3.72,3.72,0,0,1,.3,1.52,3.53,3.53,0,0,1-.3,1.48,3.16,3.16,0,0,1-.84,1.13,3.85,3.85,0,0,1-1.29.72,5.19,5.19,0,0,1-1.62.26Zm0-1.57h2a2.43,2.43,0,0,0,.88-.14,1.84,1.84,0,0,0,1.08-1.06,2.28,2.28,0,0,0,.14-.8,2.57,2.57,0,0,0-.14-.85,1.87,1.87,0,0,0-.42-.66,1.76,1.76,0,0,0-.66-.43,2.42,2.42,0,0,0-.88-.17h-2Z"/><path class="cls-3" d="M459.35,993.94v7.86a4.61,4.61,0,0,1-.29,1.65,3.74,3.74,0,0,1-.79,1.27,3.52,3.52,0,0,1-1.23.83,4.35,4.35,0,0,1-1.61.29,4.19,4.19,0,0,1-1.58-.29,3.59,3.59,0,0,1-1.22-.82,3.69,3.69,0,0,1-.79-1.28,4.75,4.75,0,0,1-.29-1.65l0-7.86h1.9v7.86a4.3,4.3,0,0,0,.14,1,2.56,2.56,0,0,0,.37.78,1.74,1.74,0,0,0,.6.51,1.86,1.86,0,0,0,.84.18,1.93,1.93,0,0,0,.85-.18,1.72,1.72,0,0,0,.62-.51,2.36,2.36,0,0,0,.38-.78,3.81,3.81,0,0,0,.14-1v-7.86Z"/><path class="cls-3" d="M475.81,1005.68h-1.95L470,997.6v8.08h-1.95V993.94H470l3.81,8v-8h2Z"/><path class="cls-3" d="M485,993.94h7v1.61h-2.53v8.53H492v1.6h-7v-1.6h2.49v-8.53H485Z"/><path class="cls-3" d="M509.54,995.54h-3.6v10.14H504V995.54h-3.57v-1.6h9.1Z"/></g></g></svg>