<svg xmlns="http://www.w3.org/2000/svg" viewBox="0 0 1023.5 81.5"><defs><style>.cls-1{fill:#455a64;}.cls-2{fill:#00b8d4;}.cls-3{fill:#fff;opacity:0.3;}</style></defs><title>Asset 8</title><g id="Layer_2" data-name="Layer 2"><g id="Layer_1-2" data-name="Layer 1"><path class="cls-1" d="M521.85,37.09,506.49,52.45a1,1,0,0,1-1.47,0l-2.09-2.09L519,34.27l-2.61-2.61L500.32,47.75,493,40.44A1,1,0,0,1,493,39l15.35-15.36L505.76,21l-16.1,16.09h0l0,0a3.65,3.65,0,0,0,0,5.17l0,0,8,8L500.32,53l2.83,2.83,0,0a3.65,3.65,0,0,0,5.17,0L524.46,39.7Z"/><path class="cls-2" d="M518.84,23.72h0l0,0a3.66,3.66,0,0,0-5.16,0l0,0L497.53,39.81l2.61,2.61,15.35-15.36a1.06,1.06,0,0,1,1.48,0l12,12a1.05,1.05,0,0,1,0,1.47L513.62,55.9l2.61,2.61,16.09-16.09,0,0a3.64,3.64,0,0,0,0-5.16Z"/><path class="cls-3" d="M511,0C292.59,0,83.75,15.49,0,29.46v52H1023.5V29.86C941.65,15.79,731.51,0,511,0Z"/></g></g></svg>