<?xml version="1.0" encoding="utf-8"?>
<!-- Generator: Adobe Illustrator 22.1.0, SVG Export Plug-In . SVG Version: 6.00 Build 0)  -->
<svg version="1.1" id="Layer_1" xmlns="http://www.w3.org/2000/svg" xmlns:xlink="http://www.w3.org/1999/xlink" x="0px" y="0px"
	 viewBox="0 0 56.7 56.7" style="enable-background:new 0 0 56.7 56.7;" xml:space="preserve">
<style type="text/css">
	.st0{fill:#FFFFFF;}
	.st1{fill:#424242;}
</style>
<circle class="st0" cx="28.3" cy="29.1" r="24.6"/>
<polygon points="26.8,25.1 18.4,34 26,29.8 30,34 38.4,25.1 30.8,29.3 "/>
<path class="st1" d="M28.3,4.5c-13.6,0-24.6,11-24.6,24.6c0,13.6,11,24.6,24.6,24.6c13.6,0,24.6-11,24.6-24.6
	C53,15.5,41.9,4.5,28.3,4.5z M28.4,43.4c-1.5,0-3-0.2-4.4-0.6l-5.2,2.9v-5.5c-3.5-2.6-5.7-6.7-5.7-11.2c0-7.9,6.9-14.3,15.4-14.3
	s15.4,6.4,15.4,14.3C43.8,37,36.9,43.4,28.4,43.4z"/>
</svg>
